<?xml version="1.0" encoding="UTF-8" standalone="no"?> <svg xmlns="http://www.w3.org/2000/svg" xmlns:xlink="http://www.w3.org/1999/xlink" xmlns:serif="http://www.serif.com/" width="100%" height="100%" viewBox="0 0 320 287" version="1.1" xml:space="preserve" style="fill-rule:evenodd;clip-rule:evenodd;stroke-linejoin:round;stroke-miterlimit:2;"> <g id="Layer-1" serif:id="Layer 1" transform="matrix(0.487912,0,0,0.487912,46.7496,17.1618)"> <g transform="matrix(0,-360.348,-360.348,0,309.36,1070.34)"> <path d="M2.274,0.59C2.274,0.614 2.254,0.633 2.231,0.633L1.574,0.633C1.55,0.633 1.53,0.614 1.53,0.59L1.53,-0.59C1.53,-0.614 1.55,-0.633 1.574,-0.633L2.231,-0.633C2.254,-0.633 2.274,-0.614 2.274,-0.59L2.274,0.59Z" style="fill:url(#_Linear1);fill-rule:nonzero;"></path> </g> <g transform="matrix(819.828,-528.17,-528.17,-819.828,298.91,415.475)"> <path d="M0.056,0.165C0.064,0.143 0.062,0.115 0.028,0.086C-0.034,0.032 -0.027,-0.026 0.013,-0.061C0.027,-0.073 0.044,-0.08 0.062,-0.084C0.083,-0.088 0.124,-0.101 0.145,-0.137C0.158,-0.158 0.189,-0.159 0.202,-0.138L0.288,-0.004C0.293,0.003 0.291,0.013 0.284,0.018L0.056,0.165Z" style="fill:url(#_Linear2);fill-rule:nonzero;"></path> </g> <g transform="matrix(3.70258,0,0,3.70258,466.506,471.189)"> <path d="M0,-42.04C0.462,-41.672 0.505,-40.984 0.092,-40.561L-25.046,-14.811C-25.546,-14.302 -26.267,-14.071 -26.977,-14.191C-27.676,-14.311 -28.276,-14.762 -28.586,-15.411L-36.366,-32.021C-36.396,-32.082 -36.437,-32.111 -36.496,-32.122C-36.546,-32.132 -36.606,-32.132 -36.656,-32.071L-67.626,-0.342C-68.036,0.078 -68.597,0.318 -69.187,0.318L-69.227,0.318C-69.826,0.309 -70.396,0.049 -70.796,-0.392L-79.276,-9.741C-79.336,-9.811 -79.446,-9.821 -79.517,-9.762L-91.376,-0.582C-91.816,-0.241 -92.437,-0.321 -92.776,-0.762C-93.116,-1.191 -93.036,-1.821 -92.597,-2.161L-80.746,-11.342C-79.847,-12.031 -78.557,-11.922 -77.796,-11.082L-69.316,-1.741C-69.276,-1.691 -69.227,-1.691 -69.187,-1.682C-69.146,-1.682 -69.097,-1.691 -69.057,-1.731L-38.097,-33.472C-37.597,-33.981 -36.866,-34.212 -36.166,-34.092C-35.466,-33.972 -34.856,-33.521 -34.557,-32.872L-26.767,-16.262C-26.746,-16.201 -26.696,-16.172 -26.637,-16.161C-26.597,-16.151 -26.536,-16.151 -26.477,-16.212L-1.337,-41.956C-0.979,-42.322 -0.401,-42.358 0,-42.04" style="fill:rgb(244,64,126);fill-rule:nonzero;"></path> </g> <g transform="matrix(-1.08391e-11,1373.74,1373.74,1.08391e-11,332.47,-276.963)"> <ellipse cx="0.434" cy="-0" rx="0.006" ry="0.006" style="fill:url(#_Linear3);"></ellipse> </g> <g transform="matrix(9.26057e-12,1373.74,1373.74,-9.26057e-12,465.05,-201.067)"> <circle cx="0.357" cy="-0" r="0.006" style="fill:url(#_Linear4);"></circle> </g> <g transform="matrix(-4.94599e-12,1373.74,1373.74,4.94599e-12,173.515,-295.023)"> <ellipse cx="0.51" cy="-0" rx="0.006" ry="0.006" style="fill:url(#_Linear5);"></ellipse> </g> </g> <g transform="matrix(0.88143,0,0,0.88143,-303.705,-196.013)"> <g transform="matrix(2.04955,0,0,2.04955,525.162,451.419)"> <path d="M0,-97.85L0,-0C0,2.57 -2.08,4.66 -4.66,4.66L-77.36,4.66C-79.94,4.66 -82.03,2.57 -82.03,-0L-82.03,-97.85C-82.03,-100.42 -79.94,-102.51 -77.36,-102.51L-4.66,-102.51C-2.08,-102.51 0,-100.42 0,-97.85" style="fill:rgb(244,64,126);fill-rule:nonzero;"></path> </g> <g transform="matrix(-169.593,0,0,169.593,547.966,262.998)"> <path d="M1.003,-0.019C1.014,-0.019 1.022,-0.01 1.022,-0C1.022,0.01 1.014,0.019 1.003,0.019L0.257,0.019C0.247,0.019 0.238,0.01 0.238,-0C0.238,-0.01 0.247,-0.019 0.257,-0.019L1.003,-0.019Z" style="fill:url(#_Linear6);fill-rule:nonzero;"></path> </g> <g transform="matrix(-169.593,0,0,169.593,547.966,281.003)"> <path d="M1.003,-0.019C1.014,-0.019 1.022,-0.01 1.022,-0C1.022,0.01 1.014,0.019 1.003,0.019L0.257,0.019C0.247,0.019 0.238,0.01 0.238,-0C0.238,-0.01 0.247,-0.019 0.257,-0.019L1.003,-0.019Z" style="fill:url(#_Linear7);fill-rule:nonzero;"></path> </g> <g transform="matrix(-169.593,0,0,169.593,547.966,299.008)"> <path d="M1.003,-0.019C1.014,-0.019 1.022,-0.01 1.022,-0C1.022,0.01 1.014,0.019 1.003,0.019L0.702,0.019C0.691,0.019 0.683,0.01 0.683,-0C0.683,-0.01 0.691,-0.019 0.702,-0.019L1.003,-0.019Z" style="fill:url(#_Linear8);fill-rule:nonzero;"></path> </g> <g transform="matrix(-169.593,0,0,169.593,547.966,317.014)"> <path d="M1.003,-0.019C1.014,-0.019 1.022,-0.01 1.022,-0C1.022,0.01 1.014,0.019 1.003,0.019L0.257,0.019C0.247,0.019 0.238,0.01 0.238,-0C0.238,-0.01 0.247,-0.019 0.257,-0.019L1.003,-0.019Z" style="fill:url(#_Linear9);fill-rule:nonzero;"></path> </g> <g transform="matrix(-169.593,0,0,169.593,547.966,335.019)"> <path d="M1.003,-0.019C1.014,-0.019 1.022,-0.01 1.022,-0C1.022,0.01 1.014,0.019 1.003,0.019L0.404,0.019C0.394,0.019 0.385,0.01 0.385,-0C0.385,-0.01 0.394,-0.019 0.404,-0.019L1.003,-0.019Z" style="fill:url(#_Linear10);fill-rule:nonzero;"></path> </g> <g transform="matrix(-169.593,0,0,169.593,547.966,353.024)"> <path d="M1.003,-0.019C1.014,-0.019 1.022,-0.01 1.022,-0C1.022,0.01 1.014,0.019 1.003,0.019L0.557,0.019C0.546,0.019 0.538,0.01 0.538,-0C0.538,-0.01 0.546,-0.019 0.557,-0.019L1.003,-0.019Z" style="fill:url(#_Linear11);fill-rule:nonzero;"></path> </g> <g transform="matrix(0,71.6284,71.6284,0,428.417,383.579)"> <path d="M0.014,-0.669C0.014,-0.714 0.051,-0.751 0.096,-0.751L0.73,-0.751C0.775,-0.751 0.812,-0.714 0.812,-0.669L0.812,0.669C0.812,0.714 0.775,0.751 0.73,0.751L0.096,0.751C0.051,0.751 0.014,0.714 0.014,0.669L0.014,-0.669Z" style="fill:url(#_Linear12);fill-rule:nonzero;"></path> </g> <g transform="matrix(26.889,0,0,-26.889,372.782,414.498)"> <rect x="0.53" y="-0.75" width="0.386" height="1.5" style="fill:url(#_Linear13);"></rect> </g> <g transform="matrix(26.889,0,0,-26.889,399.458,424.883)"> <rect x="0.144" y="-0.364" width="0.386" height="0.728" style="fill:url(#_Linear14);"></rect> </g> <g transform="matrix(26.889,0,0,-26.889,411.159,420.293)"> <rect x="0.314" y="-0.535" width="0.386" height="1.069" style="fill:url(#_Linear15);"></rect> </g> <g transform="matrix(8.07988,0,0,-8.07988,436.996,430.346)"> <rect x="-0.135" y="-0.535" width="1.285" height="1.069" style="fill:url(#_Linear16);"></rect> </g> <g transform="matrix(2.04955,0,0,2.04955,56.6557,150.955)"> <g opacity="0.25"> <g transform="matrix(0,-120.365,-120.365,0,180.465,39.6687)"> <path d="M-0.5,-0.053C-0.634,-0.075 -0.753,-0.04 -0.831,0.028C-0.893,0.082 -0.927,0.161 -0.927,0.243C-0.927,0.264 -0.91,0.282 -0.888,0.282L-0.076,0.282C-0.054,0.282 -0.037,0.264 -0.037,0.243L-0.037,-0.282C-0.08,-0.187 -0.203,-0.003 -0.5,-0.053Z" style="fill:url(#_Linear17);fill-rule:nonzero;"></path> </g> </g> </g> </g> <defs> <linearGradient id="_Linear1" x1="0" y1="0" x2="1" y2="0" gradientUnits="userSpaceOnUse" gradientTransform="matrix(1,0,0,-1,0,-1.10785e-05)"><stop offset="0" style="stop-color:white;stop-opacity:1"></stop><stop offset="1" style="stop-color:rgb(80,182,254);stop-opacity:1"></stop></linearGradient> <linearGradient id="_Linear2" x1="0" y1="0" x2="1" y2="0" gradientUnits="userSpaceOnUse" gradientTransform="matrix(1,-5.55112e-17,-5.55112e-17,-1,0,0.00573364)"><stop offset="0" style="stop-color:rgb(77,166,251);stop-opacity:1"></stop><stop offset="1" style="stop-color:rgb(67,57,240);stop-opacity:1"></stop></linearGradient> <linearGradient id="_Linear3" x1="0" y1="0" x2="1" y2="0" gradientUnits="userSpaceOnUse" gradientTransform="matrix(-0.438387,-0.898786,-0.898786,0.438387,0.62385,0.389817)"><stop offset="0" style="stop-color:white;stop-opacity:1"></stop><stop offset="1" style="stop-color:rgb(80,182,254);stop-opacity:1"></stop></linearGradient> <linearGradient id="_Linear4" x1="0" y1="0" x2="1" y2="0" gradientUnits="userSpaceOnUse" gradientTransform="matrix(-0.438387,-0.898786,-0.898786,0.438387,0.512888,0.320482)"><stop offset="0" style="stop-color:white;stop-opacity:1"></stop><stop offset="1" style="stop-color:rgb(80,182,254);stop-opacity:1"></stop></linearGradient> <linearGradient id="_Linear5" x1="0" y1="0" x2="1" y2="0" gradientUnits="userSpaceOnUse" gradientTransform="matrix(-0.438387,-0.898786,-0.898786,0.438387,0.733611,0.458402)"><stop offset="0" style="stop-color:white;stop-opacity:1"></stop><stop offset="1" style="stop-color:rgb(80,182,254);stop-opacity:1"></stop></linearGradient> <linearGradient id="_Linear6" x1="0" y1="0" x2="1" y2="0" gradientUnits="userSpaceOnUse" gradientTransform="matrix(1,0,0,-1,0,-1.66291e-06)"><stop offset="0" style="stop-color:rgb(80,182,254);stop-opacity:1"></stop><stop offset="1" style="stop-color:white;stop-opacity:1"></stop></linearGradient> <linearGradient id="_Linear7" x1="0" y1="0" x2="1" y2="0" gradientUnits="userSpaceOnUse" gradientTransform="matrix(1,0,0,-1,0,-2.31309e-06)"><stop offset="0" style="stop-color:rgb(80,182,254);stop-opacity:1"></stop><stop offset="1" style="stop-color:white;stop-opacity:1"></stop></linearGradient> <linearGradient id="_Linear8" x1="0" y1="0" x2="1" y2="0" gradientUnits="userSpaceOnUse" gradientTransform="matrix(1,0,0,-1,0,-2.96327e-06)"><stop offset="0" style="stop-color:rgb(80,182,254);stop-opacity:1"></stop><stop offset="1" style="stop-color:white;stop-opacity:1"></stop></linearGradient> <linearGradient id="_Linear9" x1="0" y1="0" x2="1" y2="0" gradientUnits="userSpaceOnUse" gradientTransform="matrix(1,0,0,-1,0,-2.13665e-06)"><stop offset="0" style="stop-color:rgb(80,182,254);stop-opacity:1"></stop><stop offset="1" style="stop-color:white;stop-opacity:1"></stop></linearGradient> <linearGradient id="_Linear10" x1="0" y1="0" x2="1" y2="0" gradientUnits="userSpaceOnUse" gradientTransform="matrix(1,0,0,-1,0,-2.78441e-06)"><stop offset="0" style="stop-color:rgb(80,182,254);stop-opacity:1"></stop><stop offset="1" style="stop-color:white;stop-opacity:1"></stop></linearGradient> <linearGradient id="_Linear11" x1="0" y1="0" x2="1" y2="0" gradientUnits="userSpaceOnUse" gradientTransform="matrix(1,0,0,-1,0,-3.43459e-06)"><stop offset="0" style="stop-color:rgb(80,182,254);stop-opacity:1"></stop><stop offset="1" style="stop-color:white;stop-opacity:1"></stop></linearGradient> <linearGradient id="_Linear12" x1="0" y1="0" x2="1" y2="0" gradientUnits="userSpaceOnUse" gradientTransform="matrix(1,0,0,-1,0,-1.25328e-06)"><stop offset="0" style="stop-color:rgb(80,182,254);stop-opacity:1"></stop><stop offset="1" style="stop-color:white;stop-opacity:1"></stop></linearGradient> <linearGradient id="_Linear13" x1="0" y1="0" x2="1" y2="0" gradientUnits="userSpaceOnUse" gradientTransform="matrix(0,1,1,0,0.72305,-0.72305)"><stop offset="0" style="stop-color:rgb(224,23,81);stop-opacity:1"></stop><stop offset="1" style="stop-color:rgb(244,64,126);stop-opacity:1"></stop></linearGradient> <linearGradient id="_Linear14" x1="0" y1="0" x2="1" y2="0" gradientUnits="userSpaceOnUse" gradientTransform="matrix(0,1,1,0,0.336841,-0.336841)"><stop offset="0" style="stop-color:rgb(224,23,81);stop-opacity:1"></stop><stop offset="1" style="stop-color:rgb(244,64,126);stop-opacity:1"></stop></linearGradient> <linearGradient id="_Linear15" x1="0" y1="0" x2="1" y2="0" gradientUnits="userSpaceOnUse" gradientTransform="matrix(0,1,1,0,0.507553,-0.507553)"><stop offset="0" style="stop-color:rgb(224,23,81);stop-opacity:1"></stop><stop offset="1" style="stop-color:rgb(244,64,126);stop-opacity:1"></stop></linearGradient> <linearGradient id="_Linear16" x1="0" y1="0" x2="1" y2="0" gradientUnits="userSpaceOnUse" gradientTransform="matrix(0,1,1,0,0.50765,-0.50765)"><stop offset="0" style="stop-color:rgb(224,23,81);stop-opacity:1"></stop><stop offset="1" style="stop-color:rgb(244,64,126);stop-opacity:1"></stop></linearGradient> <linearGradient id="_Linear17" x1="0" y1="0" x2="1" y2="0" gradientUnits="userSpaceOnUse" gradientTransform="matrix(1,0,0,-1,0,6.14798e-08)"><stop offset="0" style="stop-color:rgb(224,23,81);stop-opacity:1"></stop><stop offset="1" style="stop-color:rgb(244,64,126);stop-opacity:1"></stop></linearGradient> </defs> </svg> 